# xmcd CD database file
#
# Track frame offsets:
#	150
#	7362
#	24575
#	40275
#	49745
#	66647
#	71517
#	108330
#	127275
#	147607
#	165122
#	175847
#	211277
#	219095
#	227320
#	232480
#	248730
#	257005
#	289837
#
# Disc length: 3964 seconds
#
# Revision: 0
# Processed by: cddbd v1.5.2PL0 Copyright (c) Steve Scherf et al.
# Submitted via: CDex 1.70beta2
#
DISCID=210f7a13
DTITLE=Die Pilzfreunde - Excursion
DYEAR=1998
DGENRE=Jazz
TTITLE0=Romaria Botritis
TTITLE1=Sporen in der Ionosphäre
TTITLE2=Stringent Tea-Chings
TTITLE3=Family Life
TTITLE4=Psylocibae Glitter
TTITLE5=The Mycel Walks
TTITLE6=Triple Helix
TTITLE7=SPMS
TTITLE8=RAdio Phoebe IX
TTITLE9=Bruitage Sporifique
TTITLE10=Comfort and Convenience
TTITLE11=Fungi Veterans´ Sunday Service
TTITLE12=Labyrinth
TTITLE13=Morrel-Icones
TTITLE14=Inside King Alfred´s Jar
TTITLE15=Letter from Corporal Lawrence
TTITLE16=Pas de Trois
TTITLE17=Die Feenfalle
TTITLE18=Louis Lamella´s Nocturne -- Final Movement
EXTD=YEAR: 1998
EXTT0=
EXTT1=
EXTT2=
EXTT3=
EXTT4=
EXTT5=
EXTT6=
EXTT7=
EXTT8=
EXTT9=
EXTT10=
EXTT11=
EXTT12=
EXTT13=
EXTT14=
EXTT15=
EXTT16=
EXTT17=
EXTT18=
PLAYORDER=
